<?xml version="1.0" encoding="utf-8"?>
<!-- Generator: Adobe Illustrator 24.2.3, SVG Export Plug-In . SVG Version: 6.00 Build 0)  -->
<svg version="1.1" id="Layer_1" xmlns="http://www.w3.org/2000/svg" xmlns:xlink="http://www.w3.org/1999/xlink" x="0px" y="0px"
	 viewBox="0 0 244.93 176.43" style="enable-background:new 0 0 244.93 176.43;" xml:space="preserve">
<style type="text/css">
	.st0{fill:#000003;}
	.st1{fill:#EA0029;}
	.st2{fill:#FFFFFF;}
	.st3{fill:url(#XMLID_2_);}
	.st4{fill:#0093C9;}
</style>
<g>
	<g>
		<path class="st0" d="M39,166.75h-4.53l-16.43-25.37c-0.38-0.59-0.72-1.26-1-2h-0.13c0.12,0.68,0.18,2.14,0.18,4.37v23h-3.73
			v-31.83h4.84l15.94,24.97l1.29,2.13h0.09c-0.15-0.92-0.22-2.48-0.22-4.68v-22.42H39V166.75z"/>
		<path class="st0" d="M67.53,155.3c0,3.61-1.03,6.52-3.08,8.71c-2.05,2.2-4.8,3.3-8.25,3.3c-3.36,0-6.04-1.07-8.05-3.21
			c-2.01-2.14-3.01-4.95-3.01-8.45c0-3.76,1.03-6.73,3.09-8.91c2.06-2.18,4.89-3.27,8.5-3.27c3.37,0,6.02,1.05,7.93,3.16
			C66.57,148.74,67.53,151.63,67.53,155.3z M63.8,155.43c0-2.86-0.63-5.05-1.9-6.57c-1.27-1.52-3.07-2.29-5.43-2.29
			c-2.34,0-4.19,0.78-5.55,2.34c-1.36,1.56-2.04,3.76-2.04,6.6c0,2.72,0.68,4.85,2.05,6.38c1.37,1.53,3.22,2.3,5.54,2.3
			c2.37,0,4.18-0.75,5.44-2.26C63.17,160.43,63.8,158.26,63.8,155.43z"/>
		<path class="st0" d="M91.04,144.02l-9.06,22.73h-3.6l-8.59-22.73h4.02l5.77,16.49c0.31,0.87,0.56,1.94,0.75,3.2h0.11
			c0.13-1.1,0.37-2.12,0.71-3.09l6.06-16.6H91.04z"/>
		<path class="st0" d="M111.04,166.75h-3.64v-3.55h-0.09c-1.58,2.74-3.91,4.11-6.99,4.11c-2.19,0-3.94-0.6-5.26-1.79
			c-1.32-1.19-1.98-2.79-1.98-4.81c0-4.23,2.5-6.7,7.5-7.41l6.82-0.96c0-3.85-1.56-5.77-4.68-5.77c-2.74,0-5.21,0.93-7.41,2.78
			v-3.73c0.67-0.5,1.81-0.99,3.42-1.45c1.61-0.47,3.05-0.7,4.31-0.7c5.34,0,8.01,2.83,8.01,8.5V166.75z M107.4,155.25l-5.51,0.78
			c-1.88,0.27-3.2,0.71-3.95,1.34c-0.75,0.63-1.13,1.65-1.13,3.05c0,1.14,0.41,2.05,1.22,2.74c0.81,0.69,1.86,1.03,3.13,1.03
			c1.81,0,3.3-0.64,4.47-1.91c1.18-1.27,1.76-2.86,1.76-4.77V155.25z"/>
		<path class="st0" d="M129.75,147.71c-0.65-0.49-1.58-0.73-2.77-0.73c-1.61,0-2.92,0.76-3.93,2.28c-1.01,1.52-1.51,3.49-1.51,5.92
			v11.59h-3.64v-22.73h3.64v4.68h0.09c0.5-1.57,1.28-2.81,2.33-3.72c1.05-0.91,2.26-1.37,3.62-1.37c0.95,0,1.67,0.1,2.17,0.31
			V147.71z"/>
		<path class="st0" d="M149.82,166.75h-3.64v-3.55h-0.09c-1.58,2.74-3.91,4.11-6.99,4.11c-2.19,0-3.94-0.6-5.26-1.79
			c-1.32-1.19-1.98-2.79-1.98-4.81c0-4.23,2.5-6.7,7.5-7.41l6.82-0.96c0-3.85-1.56-5.77-4.68-5.77c-2.74,0-5.21,0.93-7.41,2.78
			v-3.73c0.67-0.5,1.81-0.99,3.42-1.45s3.05-0.7,4.31-0.7c5.34,0,8.01,2.83,8.01,8.5V166.75z M146.18,155.25l-5.51,0.78
			c-1.88,0.27-3.2,0.71-3.95,1.34c-0.75,0.63-1.13,1.65-1.13,3.05c0,1.14,0.41,2.05,1.22,2.74c0.81,0.69,1.86,1.03,3.13,1.03
			c1.81,0,3.3-0.64,4.47-1.91c1.18-1.27,1.76-2.86,1.76-4.77V155.25z"/>
		<path class="st0" d="M175.9,166.75h-3.64v-3.86h-0.09c-1.69,2.95-4.29,4.42-7.81,4.42c-2.87,0-5.16-1.03-6.86-3.1
			c-1.7-2.06-2.55-4.82-2.55-8.27c0-3.76,0.94-6.78,2.83-9.06c1.89-2.28,4.41-3.42,7.58-3.42c3.11,0,5.38,1.23,6.82,3.69h0.09V133.1
			h3.64V166.75z M172.26,156.48v-3.35c0-1.88-0.63-3.44-1.88-4.68c-1.25-1.24-2.77-1.86-4.56-1.86c-2.19,0-3.93,0.81-5.22,2.43
			c-1.29,1.62-1.93,3.87-1.93,6.74c0,2.61,0.61,4.67,1.82,6.18c1.21,1.52,2.85,2.28,4.91,2.28c2,0,3.64-0.72,4.93-2.17
			C171.62,160.58,172.26,158.73,172.26,156.48z"/>
	</g>
	<g>
		<path class="st1" d="M225.69,170.2h-37.68c-3.25,0-5.88-2.63-5.88-5.88V135.9c0-3.25,2.63-5.88,5.88-5.88h37.68
			c3.25,0,5.88,2.63,5.88,5.88v28.43C231.57,167.57,228.94,170.2,225.69,170.2z"/>
		<g>
			<path class="st2" d="M215.53,165.29h-7.51l-2.18-6.8h-10.87l-2.15,6.8h-7.46l11.13-30.58h8.17L215.53,165.29z M204.27,153.2
				l-3.28-10.28c-0.26-0.81-0.43-1.73-0.51-2.75h-0.17c-0.09,0.9-0.26,1.78-0.53,2.67l-3.33,10.36H204.27z"/>
			<path class="st2" d="M226.23,165.29h-6.89v-30.58h6.89V165.29z"/>
		</g>
	</g>
	
		<radialGradient id="XMLID_2_" cx="5632.3428" cy="1042.2477" r="28.3472" gradientTransform="matrix(3.703586e-04 -0.2115 2.0253 1.851793e-03 -1990.4915 1314.3328)" gradientUnits="userSpaceOnUse">
		<stop  offset="0" style="stop-color:#C7C7C7"/>
		<stop  offset="0.0333" style="stop-color:#CCCCCC"/>
		<stop  offset="0.23" style="stop-color:#E2E2E2"/>
		<stop  offset="0.443" style="stop-color:#F2F2F2"/>
		<stop  offset="0.6818" style="stop-color:#FCFCFC"/>
		<stop  offset="1" style="stop-color:#FFFFFF"/>
	</radialGradient>
	<path id="XMLID_4_" class="st3" d="M122.45,119.17c31.72,0.03,57.4,2.74,57.44,6.05c-0.04,3.31-25.76,5.96-57.45,5.94
		c-31.69-0.06-57.39-2.74-57.39-6.09C65.05,121.83,90.76,119.14,122.45,119.17z"/>
	<g>
		<path class="st4" d="M93.42,21.23c2.19,0,3.96-1.77,3.96-3.96c0-2.19-1.77-3.96-3.96-3.96c-2.19,0-3.96,1.77-3.96,3.96
			C89.46,19.46,91.24,21.23,93.42,21.23z"/>
		<path class="st4" d="M164.01,68.49c-1.2-2.12-2.49-4.41-3.21-6.44c0.77-0.65,1.26-1.61,1.26-2.69c0-1.29-0.7-2.41-1.74-3.03
			c0.09-0.9,0.24-1.8,0.39-2.77c0.28-1.74,0.59-3.71,0.74-6.29c0.1-1.82,0.07-3.61-0.08-5.35c-0.47-5.3-2.1-10.14-4.57-14.37
			c0.63-0.64,1.01-1.5,1.01-2.46c0-1.95-1.61-3.54-3.6-3.54c-0.54,0-1.06,0.12-1.52,0.33c-0.93-1.05-1.92-2.05-2.96-2.99
			c-6.32-5.69-14.49-9.14-22.74-9.62c-0.29-0.02-0.59-0.03-0.88-0.04c-0.43-1.73-2.01-3.02-3.91-3.02c-2.22,0-4.02,1.77-4.02,3.95
			s1.8,3.95,4.02,3.95c0.83,0,1.59-0.24,2.23-0.66c5.39,5.56,8.9,11.52,10.93,17.62c-1.17,0.49-2.14,1.35-2.75,2.44
			c-2.2-0.67-4.62-1.26-7.23-1.66c-4.13-0.63-8.72-0.79-13.6-0.09c-0.53-1.02-1.61-1.71-2.86-1.71c-1.78,0-3.22,1.41-3.22,3.16
			c0,1.74,1.44,3.16,3.22,3.16c0.3,0,0.58-0.04,0.85-0.11c2.52,4.55,4.29,9.38,5.37,14.38c-0.97,0.24-1.81,0.79-2.42,1.55
			c-7.45-3-14.51-5.36-18.75-6.71C93.99,45.35,94,45.2,94,45.04c0-2.39-1.94-4.34-4.34-4.34c-2.39,0-4.34,1.94-4.34,4.34
			s1.94,4.34,4.34,4.34c1.66,0,3.1-0.93,3.83-2.3c4.19,1.33,11.14,3.65,18.46,6.6c-0.13,0.41-0.2,0.85-0.2,1.31
			c0,2.45,1.99,4.44,4.44,4.44l0.12,0c0.07,1.25,0.11,2.5,0.11,3.75c0,2.94-0.21,5.91-0.61,8.89c-1.8,0.38-3.67,0.69-5.6,0.93h0
			c-1.89,0.23-3.83,0.39-5.82,0.47c-0.39-1.31-1.62-2.27-3.09-2.27c-1.78,0-3.22,1.41-3.22,3.16c0,1.74,1.44,3.16,3.22,3.16
			c1.51,0,2.78-1.02,3.12-2.4c2.06-0.08,4.06-0.24,5.99-0.48v0c1.77-0.22,3.48-0.49,5.15-0.83c-1.12,7.08-3.3,14.19-6.4,21.08
			c-0.18-0.03-0.36-0.05-0.55-0.05c-1.78,0-3.22,1.41-3.22,3.16c0,1.74,1.44,3.16,3.22,3.16c0.74,0,1.42-0.24,1.96-0.65l18.64,7.22
			c0.06,1.69,1.48,3.05,3.21,3.05c1.78,0,3.22-1.41,3.22-3.16c0-1.22-0.7-2.27-1.73-2.8c1.55-5.33,4.01-6.17,6.78-5.7
			c1.22,0.21,2.54,0.66,3.87,1.11c1.3,0.44,2.6,0.89,3.9,1.14c6.69,1.32,7.55-3.74,7.89-5.75c0.03-0.19,0.06-0.35,0.07-0.4
			c0.09-0.42,0.09-0.93,0.1-1.48c0-1.11,0.01-2.49,0.94-2.66c1.38-0.24,2.14-0.78,2.48-1.58c0.32-0.75,0.19-1.64-0.19-2.67
			c-0.15-0.39-0.42-0.79-0.75-1.16c1.84,0.02,3.68-0.53,2.45-3.17c-0.19-0.4-0.31-0.76-0.38-1.09c-0.15-0.72-0.06-1.28,0.18-1.7
			c0.23-0.42,0.62-0.73,1.04-0.92c0.2-0.09,0.41-0.16,0.61-0.2c0.9-0.19,1.59-0.39,2.16-0.69c0.62-0.32,1.08-0.74,1.5-1.35
			C167.65,74.93,165.95,71.91,164.01,68.49z M155.3,28.47l0.11-0.04c2.34,4.02,3.88,8.6,4.33,13.63c0.15,1.65,0.18,3.36,0.07,5.12
			c-0.14,2.51-0.45,4.43-0.72,6.12c-0.14,0.88-0.27,1.71-0.37,2.53c-0.09-0.01-0.17-0.01-0.26-0.01c-0.24,0-0.47,0.02-0.7,0.07
			c-1.1-2.2-2.64-4.91-4.65-7.68c0.42-0.53,0.67-1.21,0.67-1.94c0-0.9-0.38-1.71-0.99-2.28c1.68-4.61,2.53-9.42,2.52-14.2
			C155.32,29.35,155.31,28.91,155.3,28.47z M139.14,41.55c1.18-0.33,2.2-1.03,2.93-1.97c2.18,1.46,4.13,3.15,5.84,4.93
			c-0.35,0.5-0.55,1.11-0.55,1.77c0,1.09,0.57,2.06,1.43,2.63c-1.62,3-3.65,5.86-6.07,8.49c-1.37,1.49-2.87,2.92-4.5,4.25
			c-0.34-0.3-0.74-0.55-1.17-0.74c1.43-5.07,2.26-10.39,2.24-15.78C139.28,43.94,139.23,42.75,139.14,41.55z M139.68,64.87
			c0-0.69-0.16-1.34-0.45-1.91c1.7-1.39,3.27-2.88,4.7-4.44c2.58-2.81,4.73-5.87,6.44-9.08c0.07,0,0.14,0.01,0.2,0.01
			c0.44,0,0.85-0.09,1.23-0.24c1.92,2.65,3.39,5.24,4.46,7.36c-0.85,0.65-1.41,1.66-1.41,2.8c0,1.18,0.59,2.23,1.5,2.87
			c-4.94,11.05-11.57,18.6-18.38,23.78c-0.55-0.44-1.26-0.71-2.03-0.71c-0.04,0-0.08,0-0.12,0c-1.52-6.11-0.93-12.5-0.37-16.13
			C137.81,69.09,139.68,67.19,139.68,64.87z M125.59,12.3c0.27-0.42,0.47-0.9,0.56-1.41c0.25,0.01,0.5,0.02,0.75,0.03
			c7.87,0.45,15.68,3.76,21.73,9.2c0.97,0.87,1.89,1.8,2.76,2.77c-0.49,0.6-0.78,1.37-0.78,2.2c0,1.77,1.32,3.23,3.05,3.5
			c0.01,0.4,0.02,0.8,0.02,1.2c0,4.51-0.78,9.06-2.34,13.42c-0.24-0.06-0.5-0.09-0.76-0.09c-0.51,0-0.99,0.12-1.42,0.33
			c-1.83-1.92-3.92-3.74-6.28-5.3c0.23-0.6,0.36-1.26,0.36-1.94c0-3.07-2.53-5.56-5.66-5.56c-0.21,0-0.41,0.01-0.61,0.03
			C134.86,24.32,131.21,18.09,125.59,12.3z M111.2,35.46c0.54-0.54,0.89-1.26,0.93-2.06c4.66-0.66,9.05-0.5,13,0.11
			c2.48,0.38,4.8,0.93,6.9,1.57c-0.08,0.37-0.12,0.74-0.12,1.13c0,3.05,2.5,5.52,5.59,5.56c0.09,1.13,0.13,2.25,0.14,3.38
			c0.03,5.26-0.79,10.45-2.2,15.42c-0.05,0-0.1,0-0.15,0c-1.19,0-2.27,0.46-3.06,1.22c-3.44-2.18-7.46-4.26-11.63-6.17
			c0.03-0.2,0.04-0.41,0.04-0.62c0-2.25-1.67-4.11-3.84-4.4C115.7,45.31,113.85,40.24,111.2,35.46z M132.9,89.45
			c-7.7,4.59-15.15,6.48-20.15,7.25c2.77-1.68,5.8-4.29,8.79-7.61c4.43-4.92,8.82-11.44,12.12-18.85c-0.5,3.9-0.82,9.81,0.6,15.54
			c-0.91,0.56-1.52,1.55-1.52,2.68C132.74,88.81,132.8,89.14,132.9,89.45z M131.19,66.42c-4.02,2.24-8.58,4.03-13.65,5.25
			c0.36-2.85,0.54-5.69,0.54-8.5c0-1.38-0.04-2.75-0.13-4.11c0.9-0.38,1.65-1.06,2.12-1.9c4.02,1.85,7.88,3.86,11.2,5.95
			c-0.24,0.54-0.38,1.13-0.38,1.76C130.89,65.42,131,65.94,131.19,66.42z M110.67,95.55c3.25-7.23,5.52-14.7,6.62-22.13
			c5.51-1.27,10.44-3.19,14.78-5.61c0.19,0.2,0.39,0.38,0.61,0.54c-0.12,0.29-0.24,0.57-0.37,0.85c-3.24,7.39-7.6,13.9-12.01,18.79
			c-3.25,3.61-6.51,6.33-9.33,7.86C110.89,95.75,110.78,95.65,110.67,95.55z M140.97,97.47c-3.61-0.62-6.8,0.39-8.66,6.97
			c-1.17,0.04-2.18,0.7-2.71,1.65l-17.98-6.96c0.08-0.2,0.14-0.42,0.18-0.64c5.14-0.68,13.43-2.55,22.01-7.68
			c0.57,0.5,1.32,0.81,2.15,0.81c0.17,0,0.33-0.01,0.49-0.04c1.17,2.19,2.72,4.22,4.78,5.93C141.14,97.5,141.05,97.49,140.97,97.47z
			 M165.21,75.6c-0.25,0.36-0.53,0.62-0.9,0.81c-0.42,0.22-0.98,0.38-1.74,0.54c-0.32,0.07-0.65,0.18-0.96,0.32
			c-0.71,0.33-1.36,0.86-1.78,1.62c-0.42,0.75-0.6,1.7-0.35,2.84c0.1,0.45,0.26,0.94,0.5,1.45c0.72,1.54-3.42,0.5-3.43,0.49
			c-0.44-0.11-0.89,0.16-1,0.6c-0.09,0.37,0.08,0.74,0.39,0.92c0.26,0.17,1.95,1.29,2.28,2.2c0.24,0.65,0.35,1.15,0.22,1.45
			c-0.11,0.26-0.49,0.46-1.25,0.6c-2.29,0.41-2.3,2.55-2.3,4.28c0,0.46,0,0.88-0.06,1.13c-0.04,0.17-0.06,0.31-0.09,0.48
			c-0.26,1.53-0.92,5.38-5.91,4.42c-5.37-1.69-8.76-4.96-10.86-8.81c0.73-0.58,1.2-1.47,1.2-2.46c0-0.4-0.07-0.78-0.21-1.13
			c7.02-5.33,13.86-13.11,18.93-24.48c0.19,0.03,0.38,0.04,0.57,0.04c0.3,0,0.58-0.04,0.86-0.1c0.78,2.12,2.06,4.39,3.26,6.5
			C164.25,72.25,165.72,74.85,165.21,75.6z"/>
		<path class="st4" d="M82.76,61.43c-2.05,0-3.71,1.66-3.71,3.71c0,2.05,1.66,3.71,3.71,3.71c2.05,0,3.71-1.66,3.71-3.71
			C86.47,63.09,84.81,61.43,82.76,61.43z"/>
	</g>
</g>
</svg>
