<?xml version="1.0" encoding="utf-8"?>
<!-- Generator: Adobe Illustrator 24.2.3, SVG Export Plug-In . SVG Version: 6.00 Build 0)  -->
<svg version="1.1" id="Layer_1" xmlns="http://www.w3.org/2000/svg" xmlns:xlink="http://www.w3.org/1999/xlink" x="0px" y="0px"
	 viewBox="0 0 313.08 96.11" style="enable-background:new 0 0 313.08 96.11;" xml:space="preserve">
<style type="text/css">
	.st0{fill:#EA0029;}
</style>
<g>
	<g>
		<path d="M82.9,61.35h5.27v0.88h-4.25v3.11h4.01v0.88h-4.01v3.64h4.35v0.88H82.9V61.35z"/>
		<path d="M91.01,62.89c0,0.68,0.01,2,0.01,3.31v4.55H90v-9.4h1.06l5.76,7.75v-7.75h1.01v9.4h-0.98L91.01,62.89z"/>
		<path d="M101.8,62.22h-2.74v-0.87h6.48v0.87h-2.72v8.53h-1.02V62.22z"/>
		<path d="M106.75,61.35h5.27v0.88h-4.25v3.11h4.01v0.88h-4.01v3.64h4.35v0.88h-5.37V61.35z"/>
		<path d="M117.09,66.47l2.79,4.28h-1.27l-2.6-4.2h-1.12v4.2h-1.02v-9.4h2.55c1.63,0,2.92,0.8,2.92,2.59
			C119.33,65.34,118.38,66.2,117.09,66.47z M114.89,62.22v3.45h0.99c1.21,0,2.4-0.25,2.4-1.72c0-1.39-1.08-1.73-2.26-1.73H114.89z"
			/>
		<path d="M120.95,61.35h2.44c1.62,0,3.05,0.8,3.05,2.59c0,1.91-1.57,2.6-3.23,2.6h-1.24v4.21h-1.02V61.35z M125.39,63.95
			c0-1.14-0.86-1.73-2.04-1.73h-1.38v3.45h1.32C124.42,65.67,125.39,65.23,125.39,63.95z"/>
		<path d="M131.18,66.47l2.79,4.28h-1.27l-2.6-4.2h-1.12v4.2h-1.02v-9.4h2.55c1.63,0,2.92,0.8,2.92,2.59
			C133.42,65.34,132.47,66.2,131.18,66.47z M128.98,62.22v3.45h0.99c1.21,0,2.4-0.25,2.4-1.72c0-1.39-1.08-1.73-2.26-1.73H128.98z"
			/>
		<path d="M135.03,61.35h1.02v9.4h-1.02V61.35z"/>
		<path d="M140.79,70.03c1.13,0,1.95-0.6,1.95-1.66c0-0.98-0.79-1.46-1.66-1.84l-1.39-0.6c-1.05-0.45-1.58-1.14-1.58-2.29
			c0-1.58,1.44-2.41,2.89-2.41c1.57,0,2.41,1.01,2.58,1.21l-0.6,0.68c-0.41-0.48-1.03-1.01-2.03-1.01c-1.01,0-1.8,0.53-1.8,1.46
			c0,0.98,0.68,1.35,1.31,1.61l1.28,0.55c1.14,0.49,2.06,1.14,2.06,2.49c0,1.66-1.29,2.7-3.12,2.7c-1.43,0-2.45-0.95-2.93-1.67
			l0.69-0.67C138.84,69.2,139.78,70.03,140.79,70.03z"/>
		<path d="M145.43,61.35h5.27v0.88h-4.25v3.11h4.01v0.88h-4.01v3.64h4.35v0.88h-5.37V61.35z"/>
		<path d="M161.68,66.21h-5.39v4.53h-1.02v-9.4h1.02v3.98h5.39v-3.98h1.02v9.4h-1.02V66.21z"/>
		<path d="M164.93,61.35h5.27v0.88h-4.25v3.11h4.01v0.88h-4.01v3.64h4.35v0.88h-5.37V61.35z"/>
		<path d="M177.4,68.12h-4.29l-1.05,2.63H171l3.91-9.43h0.78l3.92,9.43h-1.16L177.4,68.12z M175.26,62.71l-1.8,4.51h3.58
			L175.26,62.71z"/>
		<path d="M180.77,61.35h1.02v8.48h3.32v0.91h-4.35V61.35z"/>
		<path d="M187.22,62.22h-2.74v-0.87h6.48v0.87h-2.72v8.53h-1.02V62.22z"/>
		<path d="M198.6,66.21h-5.39v4.53h-1.02v-9.4h1.02v3.98h5.39v-3.98h1.02v9.4h-1.02V66.21z"/>
		<path d="M206.04,70.91c-2.79,0-4.74-1.95-4.74-4.85c0-2.89,2.1-4.85,4.78-4.85c1.69,0,2.77,0.71,3.36,1.31l-0.52,0.8
			c-0.42-0.54-1.51-1.2-2.82-1.2c-2.21,0-3.76,1.58-3.76,3.91c0,2.33,1.59,3.91,3.76,3.91c1.27,0,2.25-0.46,2.9-1.17l0.52,0.72
			C208.9,70.19,207.79,70.91,206.04,70.91z"/>
		<path d="M216.43,68.12h-4.29l-1.05,2.63h-1.06l3.91-9.43h0.78l3.92,9.43h-1.16L216.43,68.12z M214.29,62.71l-1.8,4.51h3.58
			L214.29,62.71z"/>
		<path d="M223.02,66.47l2.79,4.28h-1.27l-2.6-4.2h-1.12v4.2h-1.02v-9.4h2.55c1.63,0,2.92,0.8,2.92,2.59
			C225.27,65.34,224.32,66.2,223.02,66.47z M220.83,62.22v3.45h0.99c1.21,0,2.4-0.25,2.4-1.72c0-1.39-1.08-1.73-2.26-1.73H220.83z"
			/>
		<path d="M226.87,61.35h5.27v0.88h-4.25v3.11h4.01v0.88h-4.01v3.64h4.35v0.88h-5.37V61.35z"/>
		<path d="M239.26,70.03c1.13,0,1.95-0.6,1.95-1.66c0-0.98-0.79-1.46-1.66-1.84l-1.39-0.6c-1.05-0.45-1.58-1.14-1.58-2.29
			c0-1.58,1.44-2.41,2.89-2.41c1.57,0,2.41,1.01,2.58,1.21l-0.6,0.68c-0.41-0.48-1.03-1.01-2.03-1.01c-1.01,0-1.8,0.53-1.8,1.46
			c0,0.98,0.68,1.35,1.31,1.61l1.28,0.55c1.14,0.49,2.06,1.14,2.06,2.49c0,1.66-1.29,2.7-3.12,2.7c-1.43,0-2.45-0.95-2.93-1.67
			l0.69-0.67C237.31,69.2,238.25,70.03,239.26,70.03z"/>
		<path d="M243.35,66.06c0-3,2.22-4.85,4.81-4.85c2.57,0,4.81,1.85,4.81,4.85c0,3.01-2.21,4.85-4.81,4.85
			C245.57,70.91,243.35,69.07,243.35,66.06z M251.92,66.05c0-2.47-1.72-3.92-3.76-3.92c-2.03,0-3.76,1.44-3.76,3.92
			c0,2.45,1.74,3.94,3.76,3.94C250.2,69.98,251.92,68.5,251.92,66.05z"/>
		<path d="M254.63,61.35h1.02v8.48h3.32v0.91h-4.34V61.35z"/>
		<path d="M266.79,61.35v5.58c0,1.11-0.08,2.07-0.71,2.83c-0.61,0.75-1.57,1.14-2.75,1.14c-1.2,0-2.14-0.37-2.75-1.12
			c-0.64-0.78-0.71-1.74-0.71-2.86v-5.58h1.02v5.56c0,0.75,0.03,1.58,0.48,2.18c0.38,0.52,1.1,0.9,1.96,0.9
			c0.88,0,1.55-0.35,1.97-0.91c0.44-0.58,0.46-1.41,0.46-2.17v-5.56H266.79z"/>
		<path d="M270.67,62.22h-2.74v-0.87h6.48v0.87h-2.72v8.53h-1.02V62.22z"/>
		<path d="M275.62,61.35h1.02v9.4h-1.02V61.35z"/>
		<path d="M278.28,66.06c0-3,2.22-4.85,4.81-4.85c2.57,0,4.81,1.85,4.81,4.85c0,3.01-2.21,4.85-4.81,4.85
			C280.5,70.91,278.28,69.07,278.28,66.06z M286.85,66.05c0-2.47-1.72-3.92-3.76-3.92c-2.03,0-3.76,1.44-3.76,3.92
			c0,2.45,1.74,3.94,3.76,3.94C285.13,69.98,286.85,68.5,286.85,66.05z"/>
		<path d="M290.56,62.89c0,0.68,0.01,2,0.01,3.31v4.55h-1.02v-9.4h1.06l5.76,7.75v-7.75h1.01v9.4h-0.98L290.56,62.89z"/>
		<path d="M302.15,70.03c1.13,0,1.95-0.6,1.95-1.66c0-0.98-0.79-1.46-1.66-1.84l-1.39-0.6c-1.05-0.45-1.58-1.14-1.58-2.29
			c0-1.58,1.44-2.41,2.89-2.41c1.57,0,2.41,1.01,2.58,1.21l-0.6,0.68c-0.41-0.48-1.03-1.01-2.03-1.01c-1.01,0-1.8,0.53-1.8,1.46
			c0,0.98,0.68,1.35,1.31,1.61l1.28,0.55c1.14,0.49,2.06,1.14,2.06,2.49c0,1.66-1.29,2.7-3.12,2.7c-1.43,0-2.45-0.95-2.93-1.67
			l0.69-0.67C300.2,69.2,301.14,70.03,302.15,70.03z"/>
	</g>
	<g>
		<path class="st0" d="M48.18,54.1c2.97-0.83,6.11,0.92,6.95,3.92c0.84,3-0.93,6.13-3.89,6.96c-3,0.84-6.13-0.91-6.97-3.91
			C43.42,58.07,45.18,54.95,48.18,54.1"/>
		<path class="st0" d="M34.26,67.71c0.21-0.06,0.44,0.07,0.5,0.28c0.06,0.21-0.07,0.44-0.28,0.5c-0.21,0.06-0.44-0.07-0.5-0.28
			C33.92,68,34.05,67.77,34.26,67.71"/>
		<path class="st0" d="M38.73,55.35c1.45-0.41,2.96,0.42,3.36,1.87c0.41,1.45-0.44,2.96-1.89,3.37c-1.45,0.4-2.95-0.45-3.35-1.9
			C36.45,57.25,37.29,55.75,38.73,55.35"/>
		<path class="st0" d="M38.11,62.84c1.92-0.54,3.94,0.59,4.48,2.52c0.54,1.92-0.59,3.94-2.52,4.48c-1.92,0.54-3.94-0.59-4.48-2.52
			C35.06,65.39,36.19,63.38,38.11,62.84"/>
		<path class="st0" d="M47.21,70.44c0.44-0.12,0.89,0.13,1.02,0.57c0.12,0.42-0.13,0.9-0.57,1.02c-0.42,0.12-0.9-0.15-1.02-0.57
			C46.51,71.02,46.78,70.56,47.21,70.44"/>
		<path class="st0" d="M42.14,69.78c2.19-0.61,4.46,0.67,5.07,2.84c0.61,2.17-0.65,4.45-2.84,5.07c-2.17,0.61-4.46-0.67-5.07-2.84
			C38.69,72.68,39.97,70.4,42.14,69.78"/>
		<path class="st0" d="M34.95,66.91c0.34-0.09,0.66,0.1,0.75,0.42c0.09,0.32-0.08,0.65-0.42,0.75c-0.32,0.09-0.64-0.11-0.73-0.42
			C34.45,67.34,34.63,67,34.95,66.91"/>
		<path class="st0" d="M39.64,76.43c0.44-0.12,0.89,0.13,1.02,0.57c0.12,0.44-0.13,0.9-0.57,1.02c-0.42,0.12-0.88-0.14-1-0.58
			C38.96,77,39.21,76.55,39.64,76.43"/>
		<path class="st0" d="M42.95,64.54c0.32-0.09,0.66,0.1,0.75,0.42c0.09,0.32-0.11,0.64-0.42,0.73c-0.32,0.09-0.65-0.08-0.74-0.4
			S42.64,64.63,42.95,64.54"/>
		<path class="st0" d="M43.76,64.12c0.21-0.06,0.43,0.05,0.49,0.26c0.06,0.21-0.07,0.44-0.28,0.5c-0.21,0.06-0.44-0.07-0.5-0.28
			C43.41,64.39,43.54,64.18,43.76,64.12"/>
		<path class="st0" d="M48.04,69.88c0.21-0.06,0.44,0.07,0.5,0.28c0.06,0.21-0.07,0.44-0.28,0.5c-0.21,0.06-0.44-0.07-0.5-0.28
			C47.7,70.17,47.83,69.94,48.04,69.88"/>
		<path class="st0" d="M39.36,77.94c0.21-0.06,0.44,0.07,0.5,0.28c0.06,0.21-0.07,0.44-0.28,0.5c-0.21,0.06-0.44-0.07-0.5-0.28
			C39.03,78.22,39.15,78,39.36,77.94"/>
		<path class="st0" d="M49.34,75.22c2.53-0.71,5.15,0.78,5.86,3.31c0.7,2.51-0.77,5.13-3.3,5.84c-2.53,0.71-5.17-0.76-5.87-3.27
			C45.32,78.57,46.81,75.93,49.34,75.22"/>
		<path class="st0" d="M46.91,83.39c0.56-0.16,1.13,0.18,1.29,0.72c0.16,0.57-0.16,1.13-0.73,1.29c-0.55,0.15-1.13-0.16-1.29-0.72
			C46.04,84.14,46.37,83.55,46.91,83.39"/>
		<path class="st0" d="M46.1,85.58c0.33-0.34,0.84-0.35,1.17-0.04c0.34,0.31,0.35,0.84,0.04,1.15c-0.31,0.34-0.84,0.35-1.17,0.04
			C45.81,86.43,45.79,85.9,46.1,85.58"/>
		<path class="st0" d="M46.49,87.08c0.22-0.25,0.59-0.26,0.85-0.03c0.23,0.22,0.25,0.62,0.01,0.86c-0.22,0.23-0.6,0.24-0.85,0.03
			C46.26,87.7,46.25,87.32,46.49,87.08"/>
		<path class="st0" d="M47.14,88.03c0.15-0.16,0.39-0.17,0.57-0.01c0.15,0.15,0.17,0.39,0.01,0.57c-0.15,0.16-0.41,0.16-0.57,0.01
			C46.99,88.45,46.98,88.19,47.14,88.03"/>
		<path class="st0" d="M53.82,75.8c-0.4,0.19-0.91,0.03-1.1-0.38c-0.19-0.42-0.02-0.91,0.4-1.1c0.4-0.19,0.89-0.02,1.08,0.38
			C54.41,75.12,54.22,75.61,53.82,75.8"/>
		<path class="st0" d="M54.31,74.34c-0.3,0.16-0.66,0.03-0.8-0.27c-0.14-0.3-0.01-0.66,0.29-0.8c0.3-0.14,0.66-0.02,0.81,0.29
			C54.74,73.84,54.61,74.19,54.31,74.34"/>
		<path class="st0" d="M54.36,73.2c-0.2,0.1-0.45,0.01-0.55-0.19c-0.1-0.2-0.01-0.43,0.19-0.53c0.2-0.1,0.42,0,0.51,0.2
			C54.61,72.86,54.53,73.11,54.36,73.2"/>
		<path class="st0" d="M58.22,89.06c0.32-0.09,0.66,0.1,0.75,0.42c0.09,0.32-0.1,0.66-0.42,0.75c-0.32,0.09-0.64-0.11-0.73-0.42
			C57.73,89.48,57.9,89.15,58.22,89.06"/>
		<path class="st0" d="M59.9,75.54c0.32-0.09,0.66,0.1,0.75,0.42c0.09,0.32-0.11,0.64-0.42,0.73c-0.32,0.09-0.63-0.09-0.72-0.41
			C59.41,75.97,59.58,75.63,59.9,75.54"/>
		<path class="st0" d="M57.97,89.11c-0.57-0.05-1-0.56-0.93-1.15c0.05-0.57,0.56-1,1.15-0.93c0.55,0.06,0.98,0.56,0.92,1.15
			C59.07,88.74,58.56,89.17,57.97,89.11"/>
		<path class="st0" d="M58.77,78.79c2.33-0.65,4.75,0.7,5.41,3.04c0.66,2.33-0.7,4.75-3.03,5.41c-2.33,0.65-4.74-0.71-5.39-3.04
			C55.1,81.86,56.44,79.45,58.77,78.79"/>
		<path class="st0" d="M60.37,78.7c-0.58-0.05-0.99-0.54-0.95-1.12c0.07-0.57,0.58-1,1.15-0.93c0.58,0.05,1,0.56,0.95,1.12
			C61.46,78.33,60.94,78.77,60.37,78.7"/>
		<path class="st0" d="M59.76,75.65c-0.2,0.1-0.45,0.01-0.55-0.19c-0.1-0.2-0.01-0.43,0.19-0.53c0.2-0.09,0.44-0.01,0.53,0.19
			C60.04,75.33,59.95,75.56,59.76,75.65"/>
		<path class="st0" d="M59.16,90.74c-0.2,0.1-0.45,0.01-0.55-0.19c-0.1-0.2-0.01-0.43,0.19-0.53c0.2-0.09,0.42,0,0.51,0.2
			C59.41,90.42,59.32,90.65,59.16,90.74"/>
		<path class="st0" d="M68.01,89.66c0.25-0.13,0.55-0.02,0.67,0.23c0.13,0.25,0.03,0.56-0.23,0.69c-0.25,0.11-0.54,0.02-0.67-0.23
			C67.66,90.1,67.76,89.79,68.01,89.66"/>
		<path class="st0" d="M67.18,78.23c0.25-0.13,0.56-0.04,0.67,0.21c0.13,0.25,0.04,0.56-0.21,0.69c-0.25,0.13-0.56,0.02-0.69-0.23
			C66.82,78.65,66.92,78.34,67.18,78.23"/>
		<path class="st0" d="M67.69,89.82c-0.48,0.04-0.91-0.32-0.97-0.81c-0.04-0.48,0.32-0.91,0.81-0.97c0.48-0.04,0.91,0.32,0.97,0.8
			C68.55,89.34,68.19,89.76,67.69,89.82"/>
		<path class="st0" d="M66.77,81.12c1.82-0.93,4.06-0.19,4.97,1.63c0.92,1.84,0.17,4.07-1.65,5c-1.82,0.91-4.06,0.17-4.98-1.65
			C64.21,84.27,64.93,82.04,66.77,81.12"/>
		<path class="st0" d="M68.07,80.78c-0.5,0.05-0.93-0.31-0.97-0.81c-0.06-0.48,0.32-0.91,0.8-0.97c0.48-0.04,0.93,0.31,0.97,0.81
			C68.9,80.3,68.55,80.72,68.07,80.78"/>
		<path class="st0" d="M67.08,78.32c-0.16,0.1-0.36,0.08-0.48-0.08c-0.12-0.14-0.08-0.36,0.07-0.48c0.15-0.1,0.36-0.08,0.48,0.08
			C67.26,78.01,67.22,78.21,67.08,78.32"/>
		<path class="st0" d="M69.1,90.88c-0.15,0.1-0.36,0.08-0.46-0.08c-0.12-0.14-0.08-0.36,0.06-0.47c0.16-0.1,0.36-0.08,0.48,0.08
			C69.29,90.54,69.26,90.76,69.1,90.88"/>
		<path class="st0" d="M75.14,89.03c0.2-0.11,0.45-0.03,0.55,0.19c0.11,0.2,0.01,0.43-0.19,0.55c-0.2,0.1-0.43,0.01-0.55-0.19
			C74.85,89.36,74.93,89.12,75.14,89.03"/>
		<path class="st0" d="M74.63,79.81c0.2-0.1,0.45-0.01,0.55,0.19c0.1,0.2,0.01,0.45-0.19,0.55c-0.2,0.1-0.45,0.01-0.55-0.19
			C74.34,80.16,74.43,79.91,74.63,79.81"/>
		<path class="st0" d="M74.94,89.12c-0.41,0.04-0.76-0.26-0.78-0.66c-0.03-0.39,0.25-0.74,0.64-0.77c0.39-0.03,0.74,0.27,0.78,0.66
			C75.61,88.74,75.33,89.08,74.94,89.12"/>
		<path class="st0" d="M74.25,82.13c1.47-0.74,3.28-0.12,4.01,1.37c0.72,1.47,0.1,3.29-1.37,4.01c-1.49,0.72-3.29,0.1-4.01-1.39
			C72.15,84.64,72.77,82.85,74.25,82.13"/>
		<path class="st0" d="M75.29,81.86c-0.39,0.03-0.74-0.25-0.77-0.64c-0.03-0.39,0.25-0.74,0.66-0.78c0.39-0.03,0.74,0.25,0.77,0.64
			C75.99,81.49,75.69,81.82,75.29,81.86"/>
		<path class="st0" d="M74.56,79.88c-0.13,0.09-0.29,0.06-0.38-0.06c-0.09-0.11-0.06-0.29,0.07-0.38c0.11-0.07,0.29-0.06,0.38,0.06
			C74.72,79.63,74.69,79.8,74.56,79.88"/>
		<path class="st0" d="M75.99,90.01c-0.13,0.09-0.31,0.07-0.4-0.06c-0.07-0.11-0.04-0.29,0.07-0.38c0.13-0.09,0.31-0.07,0.38,0.07
			C76.12,89.76,76.09,89.92,75.99,90.01"/>
		<path class="st0" d="M81.54,87.89c0.17-0.09,0.37-0.03,0.47,0.13c0.1,0.16,0.05,0.37-0.11,0.47c-0.17,0.09-0.37,0.03-0.48-0.13
			C81.32,88.2,81.38,88,81.54,87.89"/>
		<path class="st0" d="M80.45,80.21c0.16-0.1,0.37-0.05,0.47,0.12c0.1,0.16,0.05,0.38-0.12,0.47c-0.16,0.1-0.38,0.05-0.47-0.12
			C80.23,80.52,80.29,80.31,80.45,80.21"/>
		<path class="st0" d="M81.41,87.99c-0.33,0.05-0.64-0.16-0.69-0.49c-0.05-0.33,0.16-0.64,0.49-0.69c0.33-0.06,0.64,0.16,0.69,0.49
			S81.73,87.93,81.41,87.99"/>
		<path class="st0" d="M80.32,82.19c1.19-0.72,2.73-0.31,3.45,0.88c0.71,1.17,0.33,2.73-0.86,3.44c-1.19,0.71-2.75,0.32-3.46-0.86
			C78.73,84.47,79.13,82.91,80.32,82.19"/>
		<path class="st0" d="M81.18,81.92c-0.33,0.05-0.64-0.17-0.69-0.49c-0.05-0.33,0.16-0.64,0.49-0.71c0.33-0.05,0.64,0.18,0.69,0.51
			C81.72,81.56,81.51,81.86,81.18,81.92"/>
		<path class="st0" d="M80.41,80.29c-0.09,0.08-0.25,0.07-0.33-0.02c-0.09-0.11-0.07-0.25,0.02-0.33c0.11-0.09,0.25-0.07,0.33,0.02
			C80.51,80.05,80.5,80.2,80.41,80.29"/>
		<path class="st0" d="M82.36,88.66c-0.09,0.08-0.25,0.07-0.33-0.02c-0.08-0.09-0.07-0.25,0.02-0.33c0.11-0.09,0.25-0.07,0.33,0.02
			C82.47,88.43,82.45,88.57,82.36,88.66"/>
		<path class="st0" d="M86.69,86.56c0.15-0.08,0.32-0.01,0.39,0.12c0.08,0.15,0.03,0.32-0.11,0.41c-0.13,0.07-0.32,0.01-0.39-0.12
			C86.5,86.83,86.55,86.64,86.69,86.56"/>
		<path class="st0" d="M86.03,79.96c0.15-0.08,0.32-0.01,0.39,0.12c0.1,0.15,0.04,0.34-0.1,0.41c-0.15,0.08-0.34,0.02-0.41-0.11
			C85.84,80.22,85.9,80.03,86.03,79.96"/>
		<path class="st0" d="M86.57,86.65c-0.29,0.04-0.56-0.15-0.58-0.43c-0.04-0.29,0.15-0.54,0.43-0.58c0.28-0.04,0.54,0.15,0.58,0.43
			C87.05,86.37,86.85,86.61,86.57,86.65"/>
		<path class="st0" d="M85.8,81.68c1.04-0.58,2.36-0.21,2.93,0.81c0.58,1.04,0.21,2.36-0.83,2.94c-1.04,0.58-2.35,0.2-2.92-0.84
			C84.41,83.56,84.78,82.25,85.8,81.68"/>
		<path class="st0" d="M86.62,81.44c-0.29,0.04-0.54-0.15-0.58-0.43c-0.04-0.29,0.15-0.54,0.43-0.58c0.29-0.04,0.54,0.15,0.58,0.43
			C87.09,81.15,86.89,81.4,86.62,81.44"/>
		<path class="st0" d="M86,80.01c-0.08,0.06-0.2,0.06-0.28-0.04c-0.06-0.08-0.06-0.21,0.04-0.28c0.08-0.06,0.21-0.06,0.28,0.04
			C86.09,79.81,86.09,79.93,86,80.01"/>
		<path class="st0" d="M87.35,87.26c-0.09,0.08-0.21,0.06-0.29-0.01c-0.07-0.1-0.04-0.22,0.04-0.28c0.07-0.08,0.21-0.06,0.27,0.02
			C87.44,87.08,87.43,87.2,87.35,87.26"/>
		<path class="st0" d="M90.89,84.74c0.14-0.06,0.29,0.01,0.34,0.13c0.06,0.14-0.01,0.29-0.15,0.35c-0.12,0.05-0.27-0.02-0.33-0.14
			C90.7,84.94,90.75,84.79,90.89,84.74"/>
		<path class="st0" d="M90.95,78.9c0.14-0.06,0.29,0,0.34,0.13c0.06,0.14-0.01,0.29-0.15,0.35c-0.12,0.05-0.29-0.01-0.33-0.15
			C90.76,79.11,90.8,78.94,90.95,78.9"/>
		<path class="st0" d="M90.77,84.77c-0.26,0.02-0.47-0.19-0.47-0.44c-0.01-0.24,0.2-0.45,0.44-0.46c0.25,0,0.45,0.2,0.47,0.46
			C91.23,84.56,91.02,84.77,90.77,84.77"/>
		<path class="st0" d="M90.61,80.35c0.97-0.41,2.09,0.06,2.5,1.03c0.39,0.98-0.08,2.1-1.05,2.49c-0.96,0.4-2.08-0.06-2.48-1.04
			C89.18,81.86,89.65,80.73,90.61,80.35"/>
		<path class="st0" d="M91.3,80.24c-0.25,0.01-0.45-0.2-0.47-0.44c0.01-0.25,0.2-0.45,0.44-0.46c0.27,0,0.47,0.19,0.47,0.44
			C91.76,80.03,91.55,80.24,91.3,80.24"/>
		<path class="st0" d="M90.93,78.92c-0.08,0.06-0.18,0.03-0.24-0.05c-0.04-0.08-0.03-0.18,0.05-0.24c0.08-0.04,0.21-0.02,0.25,0.07
			C91.04,78.77,91.01,78.87,90.93,78.92"/>
		<path class="st0" d="M91.41,85.39c-0.08,0.06-0.2,0.04-0.24-0.05c-0.06-0.08-0.03-0.18,0.05-0.24c0.08-0.04,0.19-0.01,0.25,0.06
			C91.5,85.25,91.49,85.35,91.41,85.39"/>
		<path class="st0" d="M95.32,82.64c0.07-0.08,0.2-0.05,0.26,0.02c0.08,0.07,0.05,0.2-0.03,0.26c-0.08,0.06-0.19,0.05-0.25-0.02
			C95.24,82.81,95.24,82.7,95.32,82.64"/>
		<path class="st0" d="M94.18,78.68c0.08-0.06,0.2-0.05,0.26,0.02c0.08,0.07,0.05,0.2-0.03,0.26c-0.07,0.08-0.19,0.05-0.25-0.02
			C94.09,78.86,94.1,78.74,94.18,78.68"/>
		<path class="st0" d="M95.26,82.69c-0.16,0.05-0.36-0.05-0.4-0.21c-0.05-0.18,0.03-0.35,0.21-0.4c0.16-0.06,0.36,0.04,0.4,0.2
			C95.52,82.44,95.44,82.62,95.26,82.69"/>
		<path class="st0" d="M94.26,79.74c0.57-0.48,1.41-0.4,1.88,0.18c0.47,0.57,0.38,1.42-0.18,1.88c-0.57,0.46-1.43,0.4-1.9-0.17
			C93.6,81.05,93.69,80.21,94.26,79.74"/>
		<path class="st0" d="M94.69,79.51c-0.17,0.07-0.35-0.03-0.4-0.19c-0.07-0.17,0.04-0.35,0.2-0.4c0.17-0.07,0.35,0.04,0.41,0.19
			C94.96,79.28,94.85,79.47,94.69,79.51"/>
		<path class="st0" d="M98.56,81.05c-0.14,0.04-0.3-0.03-0.34-0.17c-0.04-0.14,0.03-0.3,0.17-0.34c0.14-0.06,0.3,0.03,0.34,0.17
			C98.79,80.86,98.71,81.01,98.56,81.05"/>
		<path class="st0" d="M97.24,78.64c0.48-0.4,1.2-0.32,1.59,0.16c0.4,0.48,0.32,1.19-0.17,1.57c-0.48,0.4-1.18,0.33-1.57-0.15
			C96.69,79.75,96.75,79.03,97.24,78.64"/>
		<path class="st0" d="M97.81,78.43c-0.14,0.04-0.3-0.03-0.34-0.17c-0.06-0.14,0.03-0.3,0.17-0.34c0.14-0.06,0.3,0.03,0.34,0.17
			C98.02,78.24,97.95,78.39,97.81,78.43"/>
		<path class="st0" d="M99.94,77.59c0.42-0.12,0.88,0.14,1,0.56c0.12,0.42-0.14,0.88-0.56,1c-0.42,0.12-0.88-0.13-1-0.56
			C99.26,78.17,99.51,77.71,99.94,77.59"/>
		<path class="st0" d="M34.26,67.71c0.21-0.06,0.44,0.07,0.5,0.28c0.06,0.21-0.07,0.44-0.28,0.5c-0.21,0.06-0.44-0.07-0.5-0.28
			C33.92,68,34.05,67.77,34.26,67.71"/>
		<path class="st0" d="M53.22,70.51C52.11,69.5,52,67.78,53,66.66c1.01-1.12,2.74-1.21,3.86-0.21c1.12,1.01,1.2,2.73,0.19,3.85
			C56.05,71.42,54.34,71.51,53.22,70.51"/>
		<path class="st0" d="M59.88,67.02c-1.49-1.34-1.61-3.64-0.28-5.13c1.33-1.49,3.64-1.61,5.13-0.28c1.49,1.33,1.61,3.64,0.28,5.13
			C63.67,68.23,61.37,68.35,59.88,67.02"/>
		<path class="st0" d="M61.43,55.27c-0.34-0.31-0.37-0.82-0.06-1.16c0.3-0.33,0.82-0.37,1.16-0.06c0.33,0.29,0.36,0.84,0.06,1.16
			C62.29,55.54,61.76,55.56,61.43,55.27"/>
		<path class="st0" d="M63.59,59.89c-1.69-1.52-1.82-4.12-0.31-5.8c1.51-1.68,4.11-1.83,5.8-0.31c1.68,1.51,1.82,4.12,0.32,5.8
			C67.88,61.26,65.27,61.4,63.59,59.89"/>
		<path class="st0" d="M65.02,67.51c-0.26-0.23-0.27-0.61-0.05-0.86c0.22-0.25,0.59-0.28,0.86-0.05c0.25,0.22,0.25,0.6,0.03,0.84
			C65.64,67.69,65.26,67.73,65.02,67.51"/>
		<path class="st0" d="M70.54,58.44c-0.34-0.31-0.37-0.82-0.06-1.16c0.31-0.34,0.82-0.37,1.16-0.06c0.33,0.29,0.36,0.81,0.05,1.15
			C71.39,58.71,70.87,58.74,70.54,58.44"/>
		<path class="st0" d="M58.73,62.02c-0.25-0.22-0.27-0.61-0.05-0.86c0.22-0.25,0.6-0.25,0.84-0.03c0.25,0.22,0.28,0.59,0.06,0.84
			C59.36,62.22,58.97,62.24,58.73,62.02"/>
		<path class="st0" d="M57.94,61.57c-0.16-0.15-0.19-0.39-0.04-0.56c0.15-0.16,0.4-0.18,0.57-0.03c0.16,0.15,0.18,0.41,0.03,0.57
			C58.35,61.71,58.1,61.71,57.94,61.57"/>
		<path class="st0" d="M60.51,54.86c-0.16-0.15-0.18-0.4-0.03-0.57c0.15-0.16,0.4-0.18,0.57-0.03c0.17,0.15,0.18,0.4,0.03,0.57
			C60.93,55,60.67,55.01,60.51,54.86"/>
		<path class="st0" d="M71.96,57.87c-0.16-0.15-0.18-0.4-0.03-0.57c0.15-0.16,0.4-0.18,0.57-0.03c0.16,0.15,0.18,0.4,0.03,0.57
			C72.38,58.01,72.12,58.02,71.96,57.87"/>
		<path class="st0" d="M64.32,50.91c-1.95-1.75-2.1-4.77-0.35-6.72c1.74-1.94,4.75-2.1,6.7-0.35c1.95,1.75,2.13,4.77,0.39,6.71
			C69.3,52.5,66.27,52.66,64.32,50.91"/>
		<path class="st0" d="M72.52,48.57c-0.44-0.39-0.46-1.05-0.08-1.48c0.39-0.44,1.04-0.47,1.48-0.08c0.42,0.38,0.47,1.04,0.08,1.48
			C73.62,48.92,72.94,48.95,72.52,48.57"/>
		<path class="st0" d="M74.81,48.09c-0.46-0.09-0.74-0.52-0.66-0.97c0.08-0.44,0.52-0.74,0.95-0.65c0.45,0.08,0.74,0.52,0.66,0.96
			C75.68,47.88,75.24,48.18,74.81,48.09"/>
		<path class="st0" d="M75.86,46.96c-0.33-0.05-0.54-0.36-0.48-0.7c0.06-0.32,0.39-0.54,0.72-0.47c0.32,0.06,0.53,0.37,0.48,0.7
			C76.5,46.82,76.19,47.03,75.86,46.96"/>
		<path class="st0" d="M76.32,45.9c-0.21-0.04-0.35-0.24-0.31-0.48c0.04-0.21,0.24-0.35,0.48-0.31c0.21,0.04,0.35,0.27,0.31,0.47
			C76.75,45.8,76.54,45.95,76.32,45.9"/>
		<path class="st0" d="M62.41,46.81c0.37,0.24,0.51,0.75,0.27,1.13c-0.25,0.39-0.75,0.51-1.14,0.26c-0.38-0.24-0.49-0.74-0.26-1.11
			C61.53,46.68,62.04,46.57,62.41,46.81"/>
		<path class="st0" d="M60.91,47.18c0.3,0.17,0.38,0.54,0.2,0.82c-0.18,0.28-0.55,0.37-0.83,0.19c-0.28-0.18-0.37-0.55-0.19-0.84
			C60.26,47.08,60.63,47,60.91,47.18"/>
		<path class="st0" d="M59.92,47.75c0.19,0.12,0.26,0.37,0.13,0.56c-0.12,0.19-0.36,0.24-0.55,0.12c-0.19-0.12-0.23-0.35-0.11-0.54
			C59.5,47.72,59.76,47.65,59.92,47.75"/>
		<path class="st0" d="M71.25,35.99c-0.25-0.22-0.27-0.61-0.05-0.86c0.22-0.25,0.61-0.27,0.85-0.04c0.25,0.22,0.26,0.59,0.03,0.84
			C71.87,36.18,71.49,36.21,71.25,35.99"/>
		<path class="st0" d="M58.94,41.82c-0.25-0.22-0.27-0.61-0.05-0.85c0.22-0.25,0.6-0.26,0.84-0.03c0.25,0.22,0.27,0.58,0.05,0.83
			C59.56,42,59.18,42.03,58.94,41.82"/>
		<path class="st0" d="M71.42,36.18c0.26,0.5,0.06,1.14-0.47,1.4c-0.5,0.26-1.14,0.06-1.4-0.47c-0.25-0.49-0.05-1.13,0.48-1.39
			C70.53,35.45,71.16,35.65,71.42,36.18"/>
		<path class="st0" d="M62.28,41.03c-1.8-1.62-1.95-4.39-0.34-6.19c1.62-1.8,4.39-1.95,6.19-0.33c1.8,1.62,1.94,4.38,0.32,6.18
			C66.84,42.48,64.09,42.64,62.28,41.03"/>
		<path class="st0" d="M61.35,39.73c0.28,0.52,0.07,1.12-0.44,1.4c-0.52,0.25-1.15,0.05-1.4-0.47c-0.28-0.51-0.06-1.14,0.44-1.4
			C60.45,39,61.1,39.21,61.35,39.73"/>
		<path class="st0" d="M59.1,41.87c0.19,0.12,0.26,0.37,0.13,0.56c-0.12,0.19-0.36,0.24-0.55,0.12c-0.19-0.12-0.24-0.36-0.12-0.55
			C58.68,41.81,58.93,41.76,59.1,41.87"/>
		<path class="st0" d="M72.16,34.3c0.19,0.12,0.25,0.37,0.13,0.56c-0.12,0.19-0.36,0.24-0.55,0.12c-0.19-0.12-0.23-0.35-0.11-0.54
			C71.76,34.26,72,34.2,72.16,34.3"/>
		<path class="st0" d="M66.51,27.4c-0.24-0.14-0.31-0.45-0.17-0.69c0.14-0.24,0.46-0.32,0.7-0.18c0.23,0.16,0.31,0.45,0.17,0.69
			C67.07,27.46,66.75,27.54,66.51,27.4"/>
		<path class="st0" d="M57.3,34.23c-0.24-0.14-0.34-0.45-0.18-0.68c0.14-0.24,0.45-0.34,0.69-0.19c0.24,0.14,0.33,0.46,0.18,0.71
			C57.85,34.3,57.53,34.39,57.3,34.23"/>
		<path class="st0" d="M66.82,27.58c0.29,0.39,0.22,0.94-0.17,1.25c-0.38,0.3-0.94,0.22-1.25-0.17c-0.3-0.38-0.22-0.94,0.15-1.24
			C65.95,27.12,66.5,27.2,66.82,27.58"/>
		<path class="st0" d="M59.96,33.02c-1.76-1.04-2.34-3.33-1.29-5.07c1.06-1.76,3.34-2.33,5.1-1.29c1.75,1.05,2.33,3.34,1.27,5.09
			C63.99,33.51,61.72,34.08,59.96,33.02"/>
		<path class="st0" d="M58.98,32.11c0.31,0.4,0.23,0.95-0.17,1.25c-0.37,0.31-0.94,0.22-1.24-0.15c-0.3-0.38-0.24-0.95,0.16-1.25
			C58.13,31.66,58.68,31.74,58.98,32.11"/>
		<path class="st0" d="M57.43,34.26c0.17,0.08,0.26,0.26,0.19,0.44c-0.06,0.17-0.26,0.26-0.44,0.19c-0.16-0.07-0.26-0.26-0.19-0.44
			C57.07,34.28,57.26,34.21,57.43,34.26"/>
		<path class="st0" d="M66.95,25.83c0.16,0.07,0.26,0.26,0.18,0.43c-0.06,0.17-0.26,0.26-0.43,0.21c-0.17-0.08-0.26-0.26-0.19-0.44
			C66.57,25.85,66.77,25.76,66.95,25.83"/>
		<path class="st0" d="M62.16,21.72c-0.2-0.11-0.27-0.36-0.14-0.56c0.11-0.2,0.36-0.24,0.57-0.14c0.19,0.12,0.24,0.37,0.13,0.56
			C62.59,21.79,62.35,21.84,62.16,21.72"/>
		<path class="st0" d="M54.65,27.09c-0.19-0.12-0.26-0.37-0.14-0.56c0.12-0.19,0.38-0.25,0.57-0.14c0.19,0.12,0.25,0.38,0.13,0.56
			C55.09,27.14,54.84,27.21,54.65,27.09"/>
		<path class="st0" d="M62.34,21.84c0.25,0.33,0.19,0.78-0.14,1.01c-0.31,0.24-0.76,0.18-1-0.13c-0.24-0.31-0.17-0.77,0.14-1.01
			C61.65,21.48,62.1,21.53,62.34,21.84"/>
		<path class="st0" d="M56.81,26.17c-1.41-0.85-1.86-2.7-0.99-4.12c0.86-1.4,2.72-1.85,4.11-0.99c1.41,0.87,1.85,2.72,0.98,4.13
			C60.05,26.6,58.2,27.03,56.81,26.17"/>
		<path class="st0" d="M56.02,25.43c0.24,0.31,0.18,0.76-0.13,1c-0.31,0.24-0.76,0.18-1.01-0.14c-0.24-0.31-0.19-0.76,0.13-0.99
			C55.33,25.04,55.78,25.12,56.02,25.43"/>
		<path class="st0" d="M54.74,27.11c0.15,0.06,0.21,0.21,0.15,0.36c-0.05,0.13-0.21,0.21-0.36,0.15c-0.12-0.06-0.21-0.21-0.15-0.36
			C54.44,27.12,54.61,27.04,54.74,27.11"/>
		<path class="st0" d="M62.53,20.48c0.15,0.06,0.22,0.22,0.16,0.37c-0.06,0.12-0.22,0.19-0.36,0.15c-0.15-0.06-0.22-0.22-0.15-0.36
			C62.24,20.5,62.4,20.44,62.53,20.48"/>
		<path class="st0" d="M57.77,16.92c-0.16-0.1-0.23-0.3-0.14-0.47c0.08-0.17,0.29-0.24,0.46-0.15c0.16,0.1,0.23,0.3,0.14,0.47
			C58.15,16.94,57.94,17.01,57.77,16.92"/>
		<path class="st0" d="M51.86,21.96c-0.17-0.08-0.24-0.29-0.16-0.46c0.08-0.18,0.3-0.25,0.46-0.16c0.17,0.08,0.25,0.3,0.15,0.46
			C52.24,21.98,52.04,22.04,51.86,21.96"/>
		<path class="st0" d="M57.92,16.99c0.22,0.25,0.2,0.62-0.05,0.85c-0.25,0.22-0.62,0.2-0.85-0.04c-0.22-0.25-0.2-0.63,0.05-0.85
			C57.32,16.72,57.7,16.74,57.92,16.99"/>
		<path class="st0" d="M53.6,21.01c-1.24-0.62-1.73-2.14-1.1-3.38c0.61-1.23,2.13-1.74,3.37-1.12c1.24,0.62,1.74,2.15,1.13,3.38
			C56.38,21.13,54.85,21.63,53.6,21.01"/>
		<path class="st0" d="M52.92,20.43c0.22,0.25,0.2,0.62-0.05,0.85c-0.25,0.22-0.62,0.2-0.86-0.03c-0.22-0.25-0.19-0.64,0.06-0.86
			C52.32,20.17,52.69,20.18,52.92,20.43"/>
		<path class="st0" d="M51.95,21.96c0.12,0.03,0.19,0.17,0.16,0.29c-0.05,0.13-0.17,0.19-0.29,0.16c-0.13-0.04-0.19-0.17-0.16-0.29
			C51.69,22,51.83,21.92,51.95,21.96"/>
		<path class="st0" d="M57.98,15.83c0.12,0.03,0.19,0.17,0.16,0.29c-0.03,0.12-0.17,0.19-0.29,0.16c-0.13-0.05-0.19-0.17-0.16-0.29
			C57.73,15.85,57.86,15.79,57.98,15.83"/>
		<path class="st0" d="M53.88,13.29c-0.15-0.08-0.18-0.26-0.11-0.39c0.08-0.15,0.25-0.2,0.41-0.13c0.14,0.07,0.18,0.26,0.11,0.39
			C54.21,13.31,54.03,13.37,53.88,13.29"/>
		<path class="st0" d="M48.66,17.38c-0.15-0.08-0.18-0.26-0.11-0.4c0.07-0.16,0.26-0.21,0.39-0.14c0.15,0.08,0.2,0.28,0.13,0.41
			C48.99,17.4,48.79,17.45,48.66,17.38"/>
		<path class="st0" d="M54.02,13.34c0.19,0.22,0.17,0.55-0.05,0.72c-0.22,0.2-0.54,0.16-0.72-0.05c-0.18-0.21-0.16-0.53,0.05-0.72
			C53.53,13.09,53.85,13.13,54.02,13.34"/>
		<path class="st0" d="M50.24,16.66c-1.04-0.57-1.44-1.88-0.89-2.91c0.57-1.05,1.88-1.44,2.93-0.87c1.04,0.57,1.42,1.87,0.86,2.91
			C52.58,16.83,51.27,17.21,50.24,16.66"/>
		<path class="st0" d="M49.6,16.1c0.19,0.22,0.16,0.54-0.05,0.72c-0.22,0.2-0.54,0.16-0.72-0.05c-0.19-0.22-0.16-0.53,0.05-0.72
			C49.1,15.85,49.42,15.88,49.6,16.1"/>
		<path class="st0" d="M48.72,17.39c0.09,0.03,0.15,0.14,0.12,0.25c-0.03,0.09-0.15,0.17-0.25,0.12c-0.09-0.03-0.16-0.15-0.12-0.26
			C48.5,17.41,48.6,17.35,48.72,17.39"/>
		<path class="st0" d="M54.12,12.36c0.12,0.03,0.16,0.15,0.14,0.25c-0.05,0.11-0.16,0.15-0.25,0.12c-0.11-0.02-0.17-0.15-0.13-0.24
			C53.92,12.38,54.02,12.32,54.12,12.36"/>
		<path class="st0" d="M50.09,10.72c-0.12-0.09-0.14-0.25-0.07-0.36c0.08-0.12,0.25-0.14,0.37-0.06c0.11,0.07,0.13,0.24,0.06,0.35
			C50.37,10.77,50.21,10.81,50.09,10.72"/>
		<path class="st0" d="M45.14,13.8c-0.12-0.08-0.16-0.24-0.07-0.36c0.08-0.12,0.25-0.14,0.37-0.06c0.11,0.07,0.14,0.25,0.05,0.36
			C45.41,13.85,45.25,13.9,45.14,13.8"/>
		<path class="st0" d="M50.18,10.81c0.16,0.21,0.09,0.5-0.12,0.63c-0.2,0.14-0.49,0.08-0.63-0.12c-0.13-0.21-0.08-0.49,0.13-0.64
			C49.76,10.53,50.05,10.59,50.18,10.81"/>
		<path class="st0" d="M46.54,13.31c-0.86-0.6-1.07-1.8-0.47-2.66c0.62-0.85,1.81-1.06,2.66-0.44c0.85,0.59,1.06,1.79,0.45,2.65
			C48.57,13.71,47.38,13.91,46.54,13.31"/>
		<path class="st0" d="M46.07,12.79c0.14,0.2,0.08,0.49-0.12,0.63c-0.21,0.13-0.49,0.08-0.63-0.12c-0.14-0.23-0.09-0.5,0.12-0.63
			C45.65,12.51,45.94,12.57,46.07,12.79"/>
		<path class="st0" d="M45.16,13.81c0.09,0.03,0.12,0.14,0.09,0.23c-0.05,0.08-0.14,0.12-0.23,0.09c-0.08-0.05-0.13-0.16-0.08-0.24
			C44.98,13.79,45.08,13.76,45.16,13.81"/>
		<path class="st0" d="M50.37,9.94c0.09,0.03,0.14,0.15,0.09,0.23c-0.03,0.09-0.14,0.13-0.23,0.09c-0.08-0.05-0.11-0.15-0.08-0.24
			C50.2,9.93,50.29,9.89,50.37,9.94"/>
		<path class="st0" d="M45.95,8.11c-0.11-0.02-0.15-0.14-0.12-0.23c0.02-0.1,0.14-0.15,0.23-0.12c0.09,0.04,0.15,0.14,0.12,0.23
			C46.14,8.08,46.04,8.14,45.95,8.11"/>
		<path class="st0" d="M43.22,11.19c-0.09-0.03-0.15-0.14-0.12-0.23c0.02-0.1,0.14-0.15,0.23-0.11c0.1,0.02,0.15,0.13,0.12,0.23
			C43.41,11.17,43.31,11.23,43.22,11.19"/>
		<path class="st0" d="M46.02,8.13c0.12,0.11,0.15,0.33,0.04,0.45c-0.12,0.14-0.32,0.16-0.45,0.04c-0.14-0.1-0.16-0.32-0.05-0.44
			C45.68,8.04,45.87,8.02,46.02,8.13"/>
		<path class="st0" d="M44.07,10.55c-0.71-0.22-1.09-0.98-0.86-1.68c0.24-0.7,1-1.08,1.68-0.86C45.59,8.25,46,9,45.76,9.71
			C45.53,10.41,44.77,10.79,44.07,10.55"/>
		<path class="st0" d="M43.64,10.31c0.15,0.11,0.16,0.32,0.05,0.44c-0.11,0.15-0.32,0.16-0.44,0.05c-0.15-0.11-0.16-0.32-0.06-0.45
			C43.31,10.21,43.52,10.2,43.64,10.31"/>
		<path class="st0" d="M42.87,6.22c0.11,0.1,0.13,0.27,0.03,0.37c-0.1,0.11-0.27,0.13-0.37,0.03c-0.12-0.08-0.13-0.27-0.03-0.37
			C42.58,6.13,42.76,6.12,42.87,6.22"/>
		<path class="st0" d="M41.55,8.63c-0.59-0.19-0.92-0.85-0.71-1.43c0.19-0.59,0.83-0.9,1.42-0.7c0.59,0.19,0.92,0.82,0.71,1.4
			C42.78,8.5,42.13,8.83,41.55,8.63"/>
		<path class="st0" d="M41.06,8.26c0.11,0.1,0.13,0.27,0.03,0.37c-0.08,0.12-0.27,0.13-0.37,0.03c-0.12-0.08-0.13-0.27-0.03-0.37
			C40.79,8.19,40.95,8.16,41.06,8.26"/>
		<path class="st0" d="M39.21,6.91c-0.33-0.29-0.36-0.81-0.06-1.14c0.29-0.33,0.81-0.36,1.14-0.06c0.33,0.3,0.36,0.81,0.06,1.14
			C40.06,7.17,39.54,7.2,39.21,6.91"/>
		<path class="st0" d="M66.23,66.96c0.21-0.06,0.44,0.07,0.5,0.28c0.06,0.21-0.07,0.44-0.28,0.5c-0.21,0.06-0.44-0.07-0.5-0.28
			C65.89,67.25,66.02,67.02,66.23,66.96"/>
		<path class="st0" d="M58.67,51.97c-0.46,1.43-1.98,2.24-3.42,1.78c-1.43-0.46-2.23-2-1.77-3.43c0.46-1.43,2-2.21,3.43-1.75
			C58.35,49.02,59.13,50.54,58.67,51.97"/>
		<path class="st0" d="M52.95,46.74c-0.61,1.9-2.66,2.96-4.57,2.35c-1.9-0.61-2.96-2.66-2.35-4.57c0.61-1.9,2.66-2.96,4.57-2.35
			C52.5,42.78,53.56,44.84,52.95,46.74"/>
		<path class="st0" d="M41.59,50.14c-0.14,0.44-0.6,0.67-1.04,0.53c-0.42-0.13-0.67-0.6-0.53-1.04c0.14-0.42,0.62-0.67,1.04-0.53
			C41.5,49.24,41.73,49.72,41.59,50.14"/>
		<path class="st0" d="M44.93,46.28c-0.69,2.17-3.02,3.35-5.17,2.66c-2.15-0.69-3.35-3-2.66-5.17c0.69-2.15,3.02-3.35,5.17-2.66
			C44.42,41.8,45.62,44.13,44.93,46.28"/>
		<path class="st0" d="M51.3,41.85c-0.11,0.33-0.45,0.49-0.76,0.39c-0.32-0.1-0.5-0.43-0.39-0.76c0.1-0.32,0.44-0.47,0.75-0.37
			C51.21,41.21,51.39,41.54,51.3,41.85"/>
		<path class="st0" d="M40.76,40.53c-0.14,0.44-0.6,0.67-1.04,0.53c-0.43-0.14-0.67-0.6-0.53-1.04c0.14-0.42,0.6-0.65,1.03-0.51
			C40.66,39.65,40.9,40.11,40.76,40.53"/>
		<path class="st0" d="M48.86,49.84c-0.1,0.32-0.44,0.49-0.76,0.39c-0.32-0.1-0.47-0.44-0.37-0.76c0.1-0.31,0.43-0.5,0.74-0.39
			C48.78,49.18,48.96,49.53,48.86,49.84"/>
		<path class="st0" d="M48.77,50.75c-0.07,0.21-0.28,0.34-0.49,0.27c-0.21-0.07-0.33-0.3-0.26-0.5c0.07-0.21,0.3-0.33,0.51-0.26
			C48.74,50.31,48.84,50.54,48.77,50.75"/>
		<path class="st0" d="M41.6,51.15c-0.07,0.21-0.3,0.33-0.51,0.26c-0.21-0.07-0.33-0.3-0.26-0.51c0.07-0.21,0.3-0.33,0.51-0.26
			C41.55,50.7,41.67,50.94,41.6,51.15"/>
		<path class="st0" d="M39.66,39.47c-0.07,0.21-0.3,0.33-0.51,0.26c-0.21-0.07-0.33-0.3-0.26-0.51c0.07-0.21,0.3-0.33,0.51-0.26
			C39.61,39.03,39.73,39.26,39.66,39.47"/>
		<path class="st0" d="M36.44,49.29c-0.8,2.5-3.49,3.87-5.99,3.07c-2.48-0.8-3.86-3.47-3.06-5.97c0.8-2.5,3.48-3.9,5.96-3.1
			C35.85,44.09,37.24,46.79,36.44,49.29"/>
		<path class="st0" d="M30.95,42.76c-0.18,0.56-0.77,0.85-1.31,0.68c-0.56-0.18-0.86-0.76-0.68-1.31c0.17-0.54,0.76-0.86,1.31-0.68
			C30.81,41.62,31.12,42.22,30.95,42.76"/>
		<path class="st0" d="M29.57,40.88c0.1,0.45-0.17,0.89-0.61,1c-0.44,0.11-0.89-0.17-0.98-0.6c-0.11-0.44,0.17-0.89,0.61-1
			C29.02,40.16,29.47,40.44,29.57,40.88"/>
		<path class="st0" d="M28.11,40.37c0.09,0.32-0.11,0.64-0.44,0.72c-0.31,0.08-0.65-0.13-0.72-0.46c-0.08-0.31,0.13-0.63,0.44-0.72
			C27.72,39.85,28.04,40.05,28.11,40.37"/>
		<path class="st0" d="M26.95,40.4c0.05,0.21-0.08,0.42-0.31,0.48c-0.21,0.05-0.42-0.08-0.48-0.31c-0.05-0.21,0.1-0.43,0.31-0.48
			C26.68,40.04,26.91,40.17,26.95,40.4"/>
		<path class="st0" d="M33.48,52.7c0.06-0.44,0.48-0.77,0.92-0.71c0.46,0.07,0.77,0.48,0.7,0.94c-0.06,0.44-0.47,0.76-0.91,0.69
			C33.72,53.57,33.42,53.15,33.48,52.7"/>
		<path class="st0" d="M34.43,53.92c0.03-0.34,0.34-0.57,0.67-0.52c0.33,0.05,0.56,0.35,0.51,0.68c-0.05,0.33-0.35,0.56-0.68,0.51
			C34.61,54.56,34.38,54.26,34.43,53.92"/>
		<path class="st0" d="M35.36,54.6c0.03-0.22,0.24-0.38,0.46-0.35c0.22,0.03,0.37,0.23,0.34,0.45c-0.03,0.22-0.23,0.35-0.45,0.32
			C35.5,54.99,35.34,54.78,35.36,54.6"/>
		<path class="st0" d="M19.99,49.08c-0.1,0.32-0.45,0.49-0.76,0.39c-0.32-0.1-0.49-0.44-0.39-0.76c0.1-0.32,0.44-0.47,0.75-0.37
			C19.91,48.43,20.09,48.76,19.99,49.08"/>
		<path class="st0" d="M30.34,57.92c-0.1,0.32-0.44,0.49-0.76,0.39c-0.32-0.1-0.47-0.44-0.37-0.76c0.1-0.31,0.42-0.48,0.74-0.38
			C30.26,57.28,30.44,57.61,30.34,57.92"/>
		<path class="st0" d="M20.09,48.84c0.36-0.44,1.02-0.52,1.47-0.15c0.44,0.36,0.52,1.02,0.14,1.47c-0.35,0.42-1.01,0.5-1.47,0.13
			C19.79,49.96,19.71,49.3,20.09,48.84"/>
		<path class="st0" d="M28.25,55.19c-0.74,2.31-3.21,3.58-5.51,2.84c-2.31-0.74-3.58-3.21-2.84-5.51c0.74-2.31,3.2-3.56,5.51-2.82
			C27.71,50.44,28.99,52.89,28.25,55.19"/>
		<path class="st0" d="M27.46,56.57c0.36-0.46,1-0.53,1.46-0.17c0.44,0.37,0.52,1.03,0.15,1.47c-0.36,0.46-1.02,0.52-1.46,0.17
			C27.16,57.69,27.08,57.01,27.46,56.57"/>
		<path class="st0" d="M30.33,57.75c0.03-0.22,0.24-0.38,0.46-0.36c0.22,0.03,0.36,0.24,0.34,0.45c-0.03,0.22-0.23,0.37-0.45,0.34
			C30.45,58.16,30.3,57.95,30.33,57.75"/>
		<path class="st0" d="M18.07,48.93c0.03-0.22,0.24-0.38,0.46-0.35c0.22,0.03,0.36,0.23,0.34,0.45c-0.03,0.22-0.23,0.35-0.45,0.32
			C18.2,49.32,18.05,49.12,18.07,48.93"/>
		<path class="st0" d="M14.09,56.91c-0.03,0.28-0.28,0.47-0.56,0.43c-0.28-0.03-0.48-0.29-0.45-0.57c0.05-0.27,0.28-0.47,0.56-0.43
			C13.92,56.38,14.12,56.64,14.09,56.91"/>
		<path class="st0" d="M24.09,62.52c-0.03,0.28-0.27,0.49-0.54,0.44c-0.28-0.03-0.49-0.27-0.46-0.55c0.03-0.28,0.29-0.48,0.57-0.45
			C23.94,61.99,24.14,62.25,24.09,62.52"/>
		<path class="st0" d="M14.13,56.56c0.23-0.42,0.76-0.58,1.21-0.36c0.42,0.23,0.58,0.76,0.36,1.21c-0.23,0.43-0.76,0.58-1.19,0.37
			C14.07,57.54,13.91,57.01,14.13,56.56"/>
		<path class="st0" d="M21.9,60.58c-0.23,2.03-2.08,3.49-4.1,3.25c-2.04-0.25-3.49-2.1-3.27-4.12c0.24-2.02,2.1-3.49,4.12-3.25
			C20.69,56.71,22.15,58.54,21.9,60.58"/>
		<path class="st0" d="M21.47,61.85c0.24-0.44,0.77-0.6,1.21-0.36c0.43,0.22,0.58,0.76,0.37,1.19c-0.24,0.43-0.77,0.6-1.21,0.37
			C21.41,62.82,21.25,62.28,21.47,61.85"/>
		<path class="st0" d="M24.07,62.39c0-0.19,0.13-0.35,0.33-0.36c0.18-0.02,0.35,0.13,0.36,0.33c0,0.17-0.13,0.34-0.33,0.36
			C24.24,62.71,24.09,62.56,24.07,62.39"/>
		<path class="st0" d="M12.48,57.15c0-0.17,0.13-0.35,0.32-0.34c0.18-0.02,0.35,0.13,0.37,0.31c-0.01,0.19-0.13,0.35-0.33,0.36
			C12.66,57.5,12.49,57.35,12.48,57.15"/>
		<path class="st0" d="M10.7,63.21c-0.02,0.23-0.22,0.39-0.46,0.36c-0.23-0.02-0.37-0.24-0.35-0.46c0.03-0.22,0.23-0.37,0.46-0.36
			C10.58,62.79,10.73,62.99,10.7,63.21"/>
		<path class="st0" d="M18.67,67.86c-0.03,0.22-0.24,0.38-0.46,0.36c-0.22-0.03-0.39-0.24-0.36-0.46c0.03-0.22,0.24-0.38,0.46-0.35
			C18.53,67.44,18.7,67.64,18.67,67.86"/>
		<path class="st0" d="M10.73,63c0.19-0.36,0.64-0.49,0.98-0.29c0.35,0.19,0.48,0.62,0.29,0.96c-0.19,0.35-0.63,0.47-0.98,0.29
			C10.68,63.77,10.54,63.34,10.73,63"/>
		<path class="st0" d="M16.95,66.27c-0.2,1.63-1.71,2.8-3.35,2.59c-1.63-0.21-2.8-1.73-2.58-3.35c0.22-1.64,1.72-2.8,3.37-2.58
			C16,63.14,17.16,64.64,16.95,66.27"/>
		<path class="st0" d="M16.59,67.29c0.19-0.35,0.61-0.48,0.96-0.29c0.35,0.19,0.48,0.61,0.29,0.98c-0.19,0.35-0.62,0.48-0.96,0.29
			C16.52,68.08,16.41,67.64,16.59,67.29"/>
		<path class="st0" d="M18.65,67.77c-0.01-0.16,0.11-0.28,0.26-0.28c0.14-0.01,0.28,0.11,0.28,0.26c0,0.14-0.11,0.28-0.26,0.28
			C18.78,68.04,18.64,67.92,18.65,67.77"/>
		<path class="st0" d="M9.41,63.38c-0.01-0.16,0.11-0.29,0.27-0.3c0.13,0,0.27,0.12,0.28,0.26c0.01,0.16-0.11,0.29-0.26,0.28
			C9.54,63.63,9.42,63.52,9.41,63.38"/>
		<path class="st0" d="M8.11,69.18c-0.02,0.19-0.18,0.33-0.37,0.33c-0.19-0.01-0.34-0.17-0.33-0.36c0.02-0.19,0.18-0.33,0.37-0.32
			C7.98,68.83,8.12,68.99,8.11,69.18"/>
		<path class="st0" d="M15.13,72.51c0,0.19-0.16,0.33-0.36,0.33s-0.35-0.17-0.33-0.36c0-0.19,0.17-0.35,0.36-0.33
			C14.99,72.15,15.13,72.31,15.13,72.51"/>
		<path class="st0" d="M8.11,69.02c0.14-0.3,0.49-0.44,0.79-0.31c0.31,0.14,0.44,0.49,0.31,0.79c-0.14,0.31-0.49,0.44-0.79,0.31
			C8.11,69.67,7.98,69.32,8.11,69.02"/>
		<path class="st0" d="M13.55,71.31c-0.06,1.39-1.25,2.45-2.63,2.39c-1.37-0.05-2.46-1.23-2.4-2.61c0.06-1.39,1.25-2.47,2.62-2.42
			C12.52,68.73,13.6,69.92,13.55,71.31"/>
		<path class="st0" d="M13.3,72.17c0.14-0.3,0.49-0.44,0.79-0.31c0.31,0.14,0.44,0.49,0.33,0.8c-0.14,0.3-0.51,0.43-0.81,0.3
			C13.3,72.83,13.16,72.47,13.3,72.17"/>
		<path class="st0" d="M15.09,72.43c-0.02-0.12,0.08-0.25,0.2-0.26c0.14-0.01,0.25,0.08,0.27,0.2c0.01,0.14-0.08,0.25-0.2,0.26
			C15.23,72.64,15.11,72.55,15.09,72.43"/>
		<path class="st0" d="M7.03,69.44c-0.02-0.12,0.08-0.25,0.2-0.26c0.12-0.02,0.25,0.08,0.27,0.2c0.01,0.14-0.08,0.25-0.2,0.26
			C7.15,69.65,7.05,69.56,7.03,69.44"/>
		<path class="st0" d="M6.39,74.21c-0.01,0.17-0.17,0.28-0.32,0.27c-0.17-0.02-0.28-0.15-0.28-0.32c0.01-0.15,0.16-0.28,0.32-0.27
			C6.27,73.91,6.4,74.05,6.39,74.21"/>
		<path class="st0" d="M12.26,77.3c-0.02,0.17-0.17,0.28-0.32,0.27c-0.18,0-0.3-0.15-0.29-0.31c0.02-0.17,0.17-0.29,0.32-0.28
			C12.15,77,12.27,77.15,12.26,77.3"/>
		<path class="st0" d="M6.38,74.06c0.13-0.27,0.43-0.38,0.68-0.25c0.27,0.13,0.36,0.42,0.25,0.67c-0.12,0.25-0.42,0.37-0.68,0.25
			C6.35,74.61,6.26,74.32,6.38,74.06"/>
		<path class="st0" d="M10.95,76.16c-0.09,1.18-1.13,2.08-2.3,2c-1.18-0.09-2.08-1.13-1.99-2.31c0.09-1.18,1.12-2.07,2.31-1.98
			C10.15,73.96,11.03,74.99,10.95,76.16"/>
		<path class="st0" d="M10.7,76.98c0.13-0.27,0.42-0.36,0.68-0.25c0.27,0.12,0.37,0.42,0.25,0.67c-0.13,0.27-0.42,0.37-0.68,0.25
			C10.68,77.53,10.58,77.22,10.7,76.98"/>
		<path class="st0" d="M12.24,77.24c-0.01-0.1,0.06-0.19,0.18-0.21c0.1-0.01,0.21,0.07,0.21,0.19c0.01,0.1-0.07,0.21-0.18,0.21
			C12.35,77.43,12.26,77.37,12.24,77.24"/>
		<path class="st0" d="M10.43,81.98c-0.03,0.15-0.15,0.24-0.3,0.21c-0.15-0.03-0.24-0.17-0.21-0.32c0.02-0.13,0.17-0.24,0.31-0.19
			C10.37,81.71,10.48,81.84,10.43,81.98"/>
		<path class="st0" d="M5.64,78.61c0.13-0.23,0.42-0.29,0.62-0.15c0.21,0.12,0.27,0.41,0.15,0.62c-0.14,0.21-0.41,0.27-0.64,0.14
			C5.56,79.1,5.5,78.81,5.64,78.61"/>
		<path class="st0" d="M9.41,80.91c-0.2,1.04-1.2,1.72-2.24,1.52c-1.03-0.21-1.71-1.22-1.5-2.25c0.19-1.02,1.2-1.7,2.23-1.5
			C8.94,78.89,9.62,79.89,9.41,80.91"/>
		<path class="st0" d="M9.13,81.54c0.13-0.21,0.41-0.27,0.62-0.15c0.21,0.14,0.27,0.41,0.15,0.62c-0.15,0.22-0.42,0.29-0.63,0.15
			C9.05,82.04,8.98,81.75,9.13,81.54"/>
		<path class="st0" d="M10.43,81.96c-0.01-0.1,0.07-0.17,0.17-0.18c0.09,0.01,0.17,0.07,0.18,0.17c-0.01,0.09-0.1,0.18-0.19,0.17
			C10.49,82.13,10.42,82.05,10.43,81.96"/>
		<path class="st0" d="M8.84,84.8c0.01,0.1-0.06,0.19-0.16,0.2c-0.1,0.02-0.19-0.06-0.2-0.16c-0.02-0.1,0.06-0.19,0.16-0.2
			C8.74,84.64,8.84,84.7,8.84,84.8"/>
		<path class="st0" d="M7.91,84.29c0.09,0.74-0.45,1.4-1.18,1.47c-0.74,0.07-1.39-0.46-1.47-1.18c-0.07-0.74,0.45-1.42,1.19-1.49
			C7.18,83.02,7.83,83.55,7.91,84.29"/>
		<path class="st0" d="M7.87,84.78c0.04-0.18,0.22-0.28,0.38-0.23c0.18,0.04,0.27,0.22,0.22,0.38c-0.04,0.18-0.22,0.28-0.38,0.24
			C7.91,85.12,7.82,84.93,7.87,84.78"/>
		<path class="st0" d="M7.18,87.38c0.07,0.62-0.4,1.18-1.01,1.24c-0.62,0.07-1.16-0.39-1.22-1.01c-0.07-0.62,0.37-1.17,0.99-1.22
			C6.56,86.31,7.13,86.76,7.18,87.38"/>
		<path class="st0" d="M7.05,87.97c0.05-0.14,0.19-0.23,0.33-0.18c0.15,0.03,0.23,0.19,0.18,0.33c-0.03,0.14-0.19,0.23-0.33,0.18
			C7.1,88.25,7.01,88.11,7.05,87.97"/>
		<path class="st0" d="M6.57,90.21c-0.13,0.42-0.59,0.66-1.02,0.52c-0.42-0.14-0.66-0.6-0.52-1.02c0.13-0.42,0.59-0.66,1.01-0.52
			C6.47,89.33,6.71,89.79,6.57,90.21"/>
		<path class="st0" d="M50.3,40.97c-0.14-0.17-0.12-0.43,0.05-0.57c0.17-0.14,0.43-0.12,0.57,0.05c0.14,0.17,0.12,0.43-0.05,0.57
			C50.7,41.16,50.44,41.14,50.3,40.97"/>
	</g>
	<g>
		<path d="M308.02,23.94c-1.43,0-2.56,1.09-2.56,2.48c0,1.39,1.13,2.49,2.55,2.49c1.42,0,2.54-1.1,2.54-2.49
			C310.54,25.03,309.42,23.94,308.02,23.94z M308.02,28.39c-1.1,0-1.93-0.88-1.93-1.97c0-1.09,0.83-1.98,1.9-1.98
			c1.1,0,1.91,0.89,1.91,1.99C309.9,27.51,309.09,28.4,308.02,28.39z"/>
		<path d="M308.57,26.49v-0.03c0.29-0.09,0.51-0.29,0.51-0.59c0-0.24-0.1-0.42-0.26-0.53c-0.17-0.12-0.37-0.2-0.84-0.2
			c-0.41,0-0.72,0.05-0.95,0.08v2.47h0.57v-0.98h0.27c0.32,0,0.47,0.12,0.51,0.38c0.08,0.3,0.12,0.51,0.2,0.6h0.6
			c-0.04-0.09-0.11-0.23-0.18-0.6C308.94,26.76,308.82,26.57,308.57,26.49z M307.9,26.31h-0.27V25.6c0.06-0.02,0.17-0.03,0.32-0.03
			c0.36,0,0.53,0.15,0.53,0.38C308.47,26.2,308.21,26.31,307.9,26.31z"/>
		<path d="M144.2,29.42c-1.19-1.54-3.16-3.33-5.01-4.31c-1.86-0.98-3.7-1.45-5.61-1.73c-1.9-0.27-5.08-0.15-7.54,0.73
			c-2.28,0.82-3.97,1.85-5.67,3.49c-1.7,1.63-2.97,3.39-4.01,6.07c-1.11,2.86-1.04,5.98-1.04,5.98h0.01c0,0.18-0.01,0.89,0.06,1.58
			c0.1,0.96,0.4,3.24,1.28,5.15c0.87,1.9,2.49,4.26,4.48,5.91c1.99,1.65,4.58,2.91,7.24,3.32c2.65,0.41,5.06,0.5,8.2-0.53
			c3.14-1.04,5.81-3.21,7.24-4.95c1.53-1.86,2.38-3.61,3.09-6.04c0.76-2.62,0.76-4.95,0.36-7.6
			C146.85,33.84,145.4,30.96,144.2,29.42z M140.35,46.51c-0.85,1.24-2.68,2.88-4.05,3.55c-1.36,0.67-3.92,1.29-6.3,1
			c-2.39-0.3-4.42-1.44-5.74-2.59c-1.32-1.15-2.45-2.73-3.22-5.08c-0.69-2.1-0.62-3.53-0.59-3.82h0c0,0,0.03-1,0.13-1.83
			c0.07-0.61,0.26-1.73,0.73-2.92c0.47-1.19,1.49-2.84,2.46-3.78c0.97-0.94,2.52-1.99,3.85-2.42c1.33-0.44,2.76-0.83,4.98-0.6
			c2.22,0.23,4.05,1.16,5.11,1.99c1.07,0.83,2.48,2.14,3.29,3.68c0.81,1.54,1.52,4.17,1.39,6.77
			C142.25,43.07,141.2,45.27,140.35,46.51z"/>
		<polygon points="104.87,46.38 87.15,23.71 82.76,23.71 82.76,55.3 87.66,55.3 87.66,32.31 105.86,55.3 109.85,55.3 109.85,23.71 
			104.92,23.71 		"/>
		<polygon points="174.17,23.71 164.02,48.21 153.86,23.71 148.33,23.71 161.87,55.57 165.99,55.57 179.57,23.71 		"/>
		<path d="M190.59,23.53L176.25,55.3h5.18l3.45-7.76l15.4-0.09l3.51,7.85h5.34L194.8,23.53H190.59z M187.01,42.74l5.58-12.54
			l5.6,12.54H187.01z"/>
		<path d="M233.8,41.63c1.19-0.69,2.5-1.71,3.47-3.38c0.97-1.68,1.23-3.59,1.05-5.94c-0.18-2.35-1.31-4.24-2.72-5.58
			c-1.41-1.33-3.04-2.02-5.19-2.57c-2.16-0.55-5.57-0.44-5.57-0.44h-11.8V55.3h5.05V43.72h7.45l8.55,11.58h6.13l-9.3-12.51
			C231.96,42.47,233.02,42.08,233.8,41.63z M218.07,28.49c0,0,7.92-0.01,8.76,0.01c3.09,0.07,4.38,0.99,5.18,1.68
			c0.73,0.62,1.4,1.83,1.36,3.5c-0.04,1.66-0.63,3.38-2.67,4.45c-1.97,1.03-4.66,0.9-4.66,0.9h-7.97V28.49z"/>
		<path d="M302.67,29.87c-1.74-2.22-3.58-3.59-6.58-4.86c-3-1.28-7.26-1.29-7.26-1.29H277.9v4.32v0.46V55.3h12.04
			c0.84,0,3.41-0.22,5.41-0.92c2-0.7,3.16-1.37,4.75-2.61c1.59-1.24,2.46-2.22,3.27-3.55c0.81-1.33,1.71-3.02,2.18-5.28
			c0.47-2.26,0.47-3.49,0.15-6.04C305.42,34.66,304.41,32.09,302.67,29.87z M300.47,42.28c-0.56,2.39-1.51,3.86-2.61,4.99
			c-1.06,1.08-2.33,2.03-4.4,2.7c-1.99,0.65-4.63,0.63-4.63,0.63h-5.9V28.49h6.26c0,0,1.5,0,2.97,0.3c1.46,0.3,3.28,1.04,4.73,2.23
			c1.45,1.19,2.77,3.06,3.31,4.89C300.78,37.89,300.99,40.05,300.47,42.28z"/>
		<path d="M255.46,23.53L241.11,55.3h5.18l3.45-7.76l15.4-0.09l3.51,7.85h5.34l-14.33-31.77H255.46z M251.87,42.74l5.58-12.54
			l5.6,12.54H251.87z"/>
	</g>
</g>
</svg>
